# xmcd CD database file
#
# Track frame offsets:
#	150
#	26613
#	52126
#	70546
#	104031
#	136944
#	170399
#	188493
#	217237
#	241279
#	270433
#
# Disc length: 3857 seconds
#
# Revision: 0
# Processed by: cddbd v1.5.2PL0 Copyright (c) Steve Scherf et al.
# Submitted via: CDex 1.51
#
DISCID=9d0f0f0b
DTITLE=Deirdre Cartwright Group - Dr Quantum Leaps
DYEAR=2004
DGENRE=Jazz
TTITLE0=Sky
TTITLE1=Dr Quantum
TTITLE2=Dust
TTITLE3=Wuthering Heights
TTITLE4=Walk the Circle
TTITLE5=Get Mild
TTITLE6=Beautiful or What
TTITLE7=String Theory
TTITLE8=Famously
TTITLE9=Broadband
TTITLE10=Get Mild Radio Mix
EXTD=YEAR: 2004
EXTT0=
EXTT1=
EXTT2=
EXTT3=
EXTT4=
EXTT5=
EXTT6=
EXTT7=
EXTT8=
EXTT9=
EXTT10=
PLAYORDER=
